<svg width="100" height="100" viewBox="0 0 100 100" fill="none" xmlns="http://www.w3.org/2000/svg">
<circle cx="50" cy="50" r="50" fill="black"/>
<path d="M40.2243 83.0696C47.3837 78.9358 50.5348 71.0017 50.9299 63.2661C51.3065 55.8935 44.0321 51.6069 37.5399 48.0928C29.3347 43.6514 23.7493 34.9676 23.7493 25.0003C23.7493 21.2048 24.5623 17.5963 26.0203 14.3365C26.4468 13.3828 25.3745 12.3295 24.5139 12.9219C12.7294 21.0349 5 34.6111 5 50.0003C5 63.2415 9.39374 43.9438 19.506 75.81C21.3872 81.7381 26.0789 86.9275 32.2121 85.8953C34.9756 85.4302 37.7489 84.4984 40.2243 83.0696Z" fill="white"/>
<path d="M26.282 24.993C26.2822 33.2601 31.5778 39.9561 38.0795 44.1661C44.2761 48.1785 51.6256 44.022 57.915 40.1566C65.8639 35.2714 76.177 34.7762 84.809 39.7598C88.0959 41.6576 90.8145 44.1659 92.9086 47.0585C93.5213 47.9047 94.9696 47.5027 94.8868 46.4612C93.7531 32.1991 85.8604 18.7171 72.533 11.0225C61.0657 4.40185 75.5812 17.8558 42.9281 10.6802C36.8536 9.3453 30.0136 10.8137 27.8409 16.6414C26.862 19.2672 26.2823 22.1348 26.282 24.993Z" fill="white"/>
<path d="M83.5429 41.9628C76.3833 37.8294 67.9366 39.0676 61.0398 42.5932C54.4666 45.9533 54.3915 54.3965 54.5943 61.7759C54.8506 71.1025 50.1229 80.2815 41.491 85.2652C38.204 87.1629 34.6724 88.2631 31.1203 88.6304C30.0811 88.7378 29.7051 90.1932 30.6485 90.6422C43.5667 96.7914 59.1888 96.6971 72.5162 89.0026C83.9835 82.3819 65.0743 88.2257 87.6151 63.5351C91.8084 58.9419 93.9567 52.2841 89.9962 47.4887C88.2116 45.3279 86.018 43.3921 83.5429 41.9628Z" fill="white"/>
</svg>
